<svg xmlns="http://www.w3.org/2000/svg" viewBox="0 0 157 133"><g fill="#1F2F49" fill-rule="evenodd"><path d="M133.96 119.627a3 3 0 01-2.966-3.474l3.04-19.004c.192-3.208-4.679-5.44-4.729-5.462l-5.73-2.458a3 3 0 112.364-5.514l5.743 2.463c3.345 1.434 8.861 5.491 8.32 11.59-.006.07-.014.138-.026.208l-3.058 19.125a2.999 2.999 0 01-2.958 2.526z"/><path d="M109.527 106.404a3.02 3.02 0 01-.646-.07l-.164-.036a3 3 0 01-2.223-2.053l-6.642-21.74a3.001 3.001 0 015.738-1.754l5.136 16.81 11.713-13.102a3 3 0 014.473 3.998l-15.149 16.946a2.995 2.995 0 01-2.236 1M131.694 83.793a3 3 0 01-2.933-3.646l2.53-11.499c1.038-5.023.51-9.108-1.576-12.103-2.994-4.297-8.377-5.154-8.43-5.162a3.471 3.471 0 01-.209-.038l-.345-.075a2.961 2.961 0 01-.229-.06c-.037-.011-5.284-1.49-9.803 1.15-3.15 1.843-5.344 5.33-6.519 10.364l-2.52 11.462a3 3 0 11-5.86-1.289l2.53-11.5c1.58-6.776 4.746-11.563 9.418-14.26 6.371-3.68 13.256-2.011 14.351-1.709l.171.038c1.103.18 8.068 1.547 12.316 7.575 3.107 4.41 3.973 10.082 2.572 16.86l-2.537 11.535a3 3 0 01-2.927 2.356"/><path d="M111.148 66.484c-.332 2.547-.077 5.283.727 7.547.786 2.215 2.036 3.759 3.261 4.028 2.595.556 6.934-4.05 8.301-10.26.012-.055.026-.111.042-.167.156-.573.386-1.835.364-3.201-2.73.975-6.947 1.998-12.695 2.053m4.332 17.609a7.62 7.62 0 01-1.633-.174c-3.329-.732-6.108-3.605-7.627-7.88-1.07-3.02-1.443-6.497-1.082-9.835a64.297 64.297 0 01-3.863-.507 3.001 3.001 0 01-2.483-3.441 3.007 3.007 0 013.44-2.483c14.856 2.405 22.004-2.057 22.074-2.102a3.032 3.032 0 012.456-.372c.828.236 1.53.807 1.901 1.584 2.061 4.315.863 9.364.617 10.282-2.155 9.674-8.483 14.928-13.8 14.928M73.397 40.337c-1.609 0-2.895.335-3.843 1.003-2.482 1.751-3.35 6.152-3.919 10.647-.99 7.82 2.164 14.746 5.538 15.49 3.376.74 9.152-4.222 11.531-11.734 1.371-4.319 2.43-8.677.912-11.307-.968-1.676-3.179-2.905-6.572-3.652-1.356-.298-2.574-.447-3.647-.447m-1.562 33.207c-.659 0-1.31-.067-1.95-.209-6.975-1.533-11.55-11.448-10.203-22.1.741-5.859 2.031-11.707 6.414-14.798 3.058-2.157 7.058-2.653 12.238-1.512 5.18 1.14 8.607 3.27 10.478 6.512 2.681 4.644 1.397 10.492-.389 16.12-2.945 9.295-10.076 15.987-16.588 15.987"/><path d="M68.59 53.036c-1.804 0-3.83-.2-6.097-.68a3 3 0 111.239-5.87c9.514 2.009 12.502-2.046 12.624-2.22.879-1.403 2.708-1.796 4.113-.918 1.404.879 1.809 2.763.93 4.167-.167.267-3.584 5.52-12.81 5.52"/><path d="M86.114 57.217c-.369 0-.744-.068-1.108-.214-5.972-2.377-9.878-6.723-10.041-6.906a2.999 2.999 0 01.249-4.235 2.996 2.996 0 014.23.244c.062.067 3.194 3.497 7.78 5.323a3 3 0 01-1.11 5.788M92.206 110.442A3 3 0 0189.235 107l2.496-16.757c.425-5.43-1.89-6.93-2.173-7.093l-8.193-3.452c-3.685 4.625-8.36 6.348-13.928 5.124l-.143-.031c-5.57-1.226-9.09-4.752-10.495-10.497l-8.885-.305c-.323.028-3.026.415-4.92 5.439l-4.54 20.243a3 3 0 01-5.855-1.313l4.586-20.44c.028-.126.065-.25.109-.372 3.537-9.691 10.457-9.582 10.739-9.556l11.379.389a3 3 0 012.873 2.618c.604 4.722 2.486 7.095 6.294 7.933l.144.032c3.813.837 6.516-.525 9.045-4.558a3.002 3.002 0 013.707-1.171l10.49 4.42c.27.115 6.595 2.906 5.738 13.182a3.258 3.258 0 01-.022.193l-2.512 16.856a3 3 0 01-2.963 2.558"/><path d="M35.681 110.803l72.07 16.008 25.182-13.326 16.838-73.89-93.15-20.689-20.94 91.897zm72.498 22.176c-.218 0-.435-.024-.65-.072l-76.093-16.9a3.001 3.001 0 01-2.275-3.596l22.273-97.748a2.996 2.996 0 013.576-2.262l66.354 14.733h.002l32.651 7.258a3.003 3.003 0 012.273 3.596l-17.813 78.171a2.995 2.995 0 01-1.522 1.985l-27.373 14.486a2.99 2.99 0 01-1.403.35z"/><path d="M101.616 35.693a3.002 3.002 0 01-2.718-4.268l4.512-9.684a3 3 0 015.439 2.533l-4.511 9.685a3.002 3.002 0 01-2.722 1.734"/><path d="M109.573 9.98c-2.354 0-4.527 1.514-5.217 3.843a5.199 5.199 0 00.434 4.003 5.367 5.367 0 003.254 2.583c2.889.832 5.909-.795 6.745-3.627a5.205 5.205 0 00-.435-4 5.365 5.365 0 00-3.251-2.586 5.51 5.51 0 00-1.53-.216m-.002 16.647a11.45 11.45 0 01-3.186-.453 11.31 11.31 0 01-6.854-5.461 11.156 11.156 0 01-.929-8.592c1.771-5.979 8.123-9.428 14.159-7.691a11.326 11.326 0 016.853 5.465 11.16 11.16 0 01.929 8.586c-1.458 4.935-6.029 8.146-10.972 8.146M104.93 131.659c-.237 0-.479-.03-.72-.09a2.997 2.997 0 01-2.194-3.63l6.198-25.101a3.002 3.002 0 013.61-2.2l24.176 5.78a3 3 0 012.221 3.615 3.007 3.007 0 01-3.615 2.22l-21.28-5.086-5.486 22.21a3 3 0 01-2.91 2.282M18.376 50.387a4.536 4.536 0 00-2.39 3.508 4.54 4.54 0 00-4.243.033c-2.198 1.174-3.054 3.86-1.912 6 2.068 3.872 6.737 3.038 12.122 5.141 1.249-5.645 4.539-9.06 2.47-12.934-1.141-2.14-3.85-2.922-6.047-1.748M11.145 8.518c-.254 0-.508.018-.764.055-2.775.404-4.718 2.895-4.331 5.552.515 3.543 3.076 5.277 7.936 8.285 1.8 1.114 3.768 2.33 5.775 3.824 1.499-2.003 3.038-3.731 4.446-5.312 3.8-4.268 5.76-6.66 5.245-10.202a4.742 4.742 0 00-1.937-3.17 5.153 5.153 0 00-3.796-.917h-.001c-1.703.248-3.16 1.298-3.896 2.808a2.996 2.996 0 01-4.906.715 5.104 5.104 0 00-3.771-1.638zm9.25 25.075c-.72 0-1.423-.26-1.973-.742-2.517-2.198-5.097-3.794-7.593-5.338C5.802 24.4 1.054 21.463.112 14.988-.751 9.058 3.468 3.517 9.516 2.636a11.208 11.208 0 016.993 1.248 11.188 11.188 0 016.345-3.19c2.914-.422 5.82.286 8.183 1.998 2.387 1.73 3.932 4.275 4.353 7.163.942 6.474-2.771 10.644-6.703 15.058-1.952 2.19-3.97 4.458-5.755 7.282a3.003 3.003 0 01-2.537 1.398z"/></g></svg>
