<svg xmlns="http://www.w3.org/2000/svg" xmlns:xlink="http://www.w3.org/1999/xlink" viewBox="0 0 149 135"><defs><path id="a" d="M0 .372h75.718v39.703H0z"/></defs><g fill="none" fill-rule="evenodd"><path d="M123.892 120.376c-1.27 0-2.334-.99-2.408-2.274l-1.34-23.052c-.678-4.698-7.795-6.186-7.867-6.2l-7.347-1.403a2.414 2.414 0 11.906-4.742l7.347 1.402c.436.083 10.697 2.135 11.76 10.403.008.055.013.111.016.168l1.345 23.144a2.413 2.413 0 01-2.412 2.554" fill="#1F2F49"/><path d="M91.933 111.785h-.201a3.002 3.002 0 01-2.614-1.527L75.763 86.552a3.002 3.002 0 015.229-2.946l10.84 19.244 10.838-19.244a3.001 3.001 0 015.229 2.946l-13.352 23.706a3.002 3.002 0 01-2.614 1.527m20.096-32.135a3 3 0 01-3-3V62.56c-.081-6.323-1.815-11.11-5.155-14.188-4.801-4.425-11.547-4.021-11.614-4.012-.068.005-.15.008-.218.008h-.423a2.61 2.61 0 01-.233-.01c-.052-.005-6.796-.412-11.6 4.014-3.34 3.079-5.074 7.865-5.155 14.226V76.65a3 3 0 11-6 0V62.559c.103-8.152 2.509-14.417 7.152-18.658 6.38-5.83 14.708-5.603 15.929-5.534h.237c1.212-.07 9.547-.297 15.928 5.534 4.642 4.24 7.048 10.506 7.152 18.62v14.13a3 3 0 01-3 3" fill="#1F2F49"/><path d="M83.098 64.281c.262 7.35 4.607 14.61 8.875 14.61 4.236 0 8.242-7.438 8.242-15.305 0-.047.001-.093.004-.14.002-.032.141-3.017-.9-5.747-2.762 1.943-7.967 4.834-16.221 6.582m8.875 19.438c-7.434 0-13.088-9.531-13.667-18.613-1.81.244-3.734.43-5.783.546a2.413 2.413 0 11-.272-4.82c18.538-1.044 25.963-8.41 26.036-8.486a2.412 2.412 0 011.867-.725 2.418 2.418 0 011.773.92c3.295 4.227 3.151 10.3 3.116 11.105-.02 9.706-5.267 20.073-13.07 20.073M37.856 43.344c-4.39 0-7.35.905-9.05 2.769-2.606 2.853-2.5 8.37-1.996 13.907.896 9.855 6.57 17.219 11.046 17.219 4.48 0 10.16-7.364 11.053-17.218.504-5.537.61-11.053-1.995-13.906-1.703-1.865-4.665-2.771-9.058-2.771m0 39.895c-8.25 0-15.886-10.173-17.021-22.676-.627-6.906-.633-13.926 3.54-18.496 2.902-3.178 7.312-4.723 13.48-4.723 6.175 0 10.587 1.545 13.489 4.725 4.174 4.571 4.168 11.59 3.539 18.495-1.131 12.502-8.77 22.675-17.027 22.675" fill="#1F2F49"/><path d="M23.788 60.614a3 3 0 01-.024-6c12.208-.103 14.683-6.085 14.705-6.145a3 3 0 115.65 2.017c-.145.407-3.754 9.986-20.305 10.129h-.026z" fill="#1F2F49"/><path d="M51.918 60.304c-.16 0-.324-.013-.488-.039-7.456-1.222-13.03-5.218-13.264-5.388a3 3 0 013.518-4.86c.046.033 4.708 3.343 10.714 4.326a3 3 0 01-.48 5.961" fill="#1F2F49"/><g transform="translate(0 80.887)"><mask id="b" fill="#fff"><use xlink:href="#a"/></mask><path d="M72.715 40.075a3 3 0 01-2.99-2.794L68.333 17.03c-.996-7.202-4.68-8.214-4.837-8.254l-10.92-2.012c-3.004 6.404-7.915 9.646-14.627 9.646h-.18c-6.712 0-11.622-3.242-14.627-9.645l-11.009 2.03c-.068.021-3.752 1.033-4.748 8.235L5.993 37.281a2.99 2.99 0 01-3.199 2.787A3.001 3.001 0 01.007 36.87l1.398-20.352c.005-.064.011-.129.02-.193 1.586-11.814 9.292-13.37 9.62-13.43l13.4-2.47a2.999 2.999 0 013.37 1.938c1.991 5.566 5.061 8.047 9.954 8.047h.18c4.893 0 7.963-2.48 9.955-8.047a3.004 3.004 0 013.37-1.939l13.4 2.47c.327.061 8.033 1.617 9.62 13.431.008.064.014.13.02.193L75.71 36.87a3.001 3.001 0 01-2.996 3.206" fill="#1F2F49" mask="url(#b)"/></g><path d="M141.624 117.156c0 9.793-7.938 17.73-17.73 17.73-9.793 0-17.732-7.937-17.732-17.73 0-9.792 7.94-17.73 17.732-17.73 9.792 0 17.73 7.938 17.73 17.73" fill="#FFF"/><path d="M54.336 5.992A5.303 5.303 0 0050.55 7.54c-2.118 2.124-2.066 5.63.12 7.817l11.823 11.83 11.831-11.832c2.18-2.184 2.234-5.693.116-7.816-.995-.997-2.339-1.547-3.786-1.547-1.51 0-2.934.591-4.006 1.665l-2.035 2.038c-1.123 1.127-3.117 1.127-4.24 0L58.34 7.657a5.623 5.623 0 00-4.004-1.665m8.158 28.43a3.007 3.007 0 01-2.119-.878L46.431 19.593c-4.515-4.524-4.569-11.828-.12-16.285C48.44 1.177 51.288.002 54.334 0h.002c3.071 0 5.963 1.184 8.158 3.34A11.57 11.57 0 0170.654 0h.002c3.05 0 5.901 1.176 8.028 3.307 4.443 4.456 4.39 11.758-.119 16.282L64.612 33.544a2.997 2.997 0 01-2.118.878m77.656 77.218c.23 0 .439-.16.439-.16s2.64-1.762 4.244-3.266c1.602-1.503 3.24-3.587 3.24-6.402 0-2.817-2.26-4.695-4.515-4.695-2.257 0-3.392 1.949-3.392 1.949h-.031s-1.135-1.95-3.391-1.95c-2.257 0-4.516 1.879-4.516 4.696 0 2.815 1.638 4.899 3.24 6.402 1.603 1.504 4.244 3.267 4.244 3.267s.21.159.439.159m-6.126 1.34c.216 1.078.325 2.207.325 3.356v11.744a.296.296 0 01-.296.296h-3.83a.295.295 0 01-.295-.296v-11.233c0-.747-.05-1.478-.146-2.173-.094-.668-.29-1.262-.58-1.764a3.251 3.251 0 00-1.211-1.191c-.521-.298-1.23-.45-2.108-.45-1.733 0-2.983.53-3.715 1.577-.755 1.078-1.138 2.496-1.138 4.213v11.02a.296.296 0 01-.296.297h-3.83a.295.295 0 01-.295-.296v-10.552c0-.947-.05-1.822-.146-2.603-.096-.757-.287-1.418-.567-1.966a3.014 3.014 0 00-1.163-1.241c-.506-.298-1.207-.448-2.084-.448-.638 0-1.265.128-1.864.38a4.427 4.427 0 00-1.575 1.138c-.455.507-.821 1.166-1.09 1.96-.272.804-.41 1.767-.41 2.865v10.467a.296.296 0 01-.295.296h-3.83a.295.295 0 01-.295-.296v-20.17c0-.163.13-.295.296-.295h3.574c.163 0 .295.132.295.296v2.175c.067-.09.14-.183.222-.28a7.14 7.14 0 011.42-1.267 8.8 8.8 0 012.027-1.013c.78-.28 1.65-.422 2.589-.422 1.55 0 2.876.33 3.94.979.932.57 1.724 1.396 2.359 2.459a6.694 6.694 0 012.627-2.467c1.23-.645 2.493-.971 3.754-.971 1.6 0 2.935.268 3.966.799 1.03.53 1.855 1.243 2.449 2.118a8.062 8.062 0 011.216 2.959" fill="#1F2F49"/></g></svg>
