<svg xmlns="http://www.w3.org/2000/svg" xmlns:xlink="http://www.w3.org/1999/xlink" viewBox="0 0 146 142"><defs><path d="M2.699.04A2.057 2.057 0 00.653 2.103v6.875c0 1.137.918 2.062 2.046 2.062h6.817a2.056 2.056 0 002.046-2.062v-.951l2.305 1.162c.176.09.364.134.551.134a1.24 1.24 0 001.235-1.247V3.005a1.24 1.24 0 00-.586-1.06 1.218 1.218 0 00-1.2-.054l-2.305 1.161v-.949A2.057 2.057 0 009.516.04H2.699z" id="a"/><path id="c" d="M0 .443h23.6V23.29H0z"/><path id="e" d="M.588.446h31.594v31.553H.588z"/></defs><g fill="none" fill-rule="evenodd"><g fill="#1F2F49"><path d="M32.653 6.993c-11.373 0-20.626 7.094-20.626 15.813 0 10.108 10.106 19.13 17.626 23.292v-3.974c0-1.902 1.558-3.478 3.473-3.51 11.112-.192 20.153-7.284 20.153-15.808 0-8.72-9.253-15.813-20.626-15.813zM31.048 52.98a4.629 4.629 0 01-1.965-.44c-1.869-.873-8.425-4.217-14.391-10.565-5.669-6.031-8.665-12.66-8.665-19.17C6.027 10.778 17.971.993 32.653.993s26.626 9.785 26.626 21.813c0 11.304-10.196 20.474-23.626 21.678V48.4a4.55 4.55 0 01-2.122 3.854 4.621 4.621 0 01-2.483.727zm89.605-30.93c-8.783 0-15.929 5.596-15.929 12.475 0 7.666 7.088 14.574 12.858 18.147v-2.185c0-1.885 1.538-3.453 3.427-3.492 8.591-.152 15.573-5.747 15.573-12.47 0-6.879-7.146-12.475-15.929-12.475zm-1.29 38.001a4.365 4.365 0 01-1.892-.434c-4.079-1.96-8.48-5.279-11.77-8.877-4.657-5.09-7.119-10.698-7.119-16.215 0-10.266 9.901-18.618 22.071-18.618 12.17 0 22.071 8.352 22.071 18.618 0 9.478-8.158 17.197-19 18.441v2.708a4.35 4.35 0 01-2.047 3.706 4.337 4.337 0 01-2.314.671zm-35.398 70.446H59.589c-5.941 0-10.774-4.692-10.774-10.461V52.958c0-5.77 4.833-10.461 10.774-10.461h24.376c5.94 0 10.774 4.692 10.774 10.46v13.698a3 3 0 11-6 0V52.958c0-2.46-2.141-4.461-4.774-4.461H59.589c-2.633 0-4.774 2-4.774 4.46v67.079c0 2.46 2.14 4.46 4.774 4.46h24.376c2.633 0 4.774-2 4.774-4.46v-14.143a3 3 0 116 0v14.143c0 5.769-4.833 10.46-10.774 10.46"/><path d="M77.973 53.087H64.248a3 3 0 110-6h13.725a3 3 0 110 6m20.888 50.736a3.707 3.707 0 01-3.708-3.714V99.02c-6.642-1.656-11.369-6.932-11.369-13.117 0-4.668 2.7-8.962 7.222-11.485a3 3 0 112.923 5.24c-2.595 1.448-4.145 3.783-4.145 6.245 0 3.88 3.716 7.149 8.644 7.604a3.001 3.001 0 012.723 2.87c1.964-1.191 4.358-2.965 6.11-5.214a3 3 0 114.733 3.687c-3.685 4.73-9.33 7.776-11.803 8.725a3.707 3.707 0 01-1.33.247"/><path d="M113.731 69.052c-2.262-.4-4.3.891-5.154 2.865a.46.46 0 01-.848 0c-.852-1.974-2.893-3.266-5.155-2.865-2.572.456-4.164 3.071-3.89 5.798.322 3.218 2.427 5.245 4.833 7.564 1.3 1.251 2.643 2.547 3.893 4.19a.932.932 0 00.742.375.939.939 0 00.744-.375c1.25-1.643 2.594-2.939 3.893-4.19 2.406-2.319 4.51-4.346 4.834-7.564.273-2.727-1.32-5.342-3.892-5.798m14.336-38.168a1.215 1.215 0 00-1.2-.054l-2.305 1.161v-.95a2.057 2.057 0 00-2.046-2.062H115.7a2.057 2.057 0 00-2.046 2.062v6.875c0 1.137.918 2.063 2.046 2.063h6.817a2.057 2.057 0 002.046-2.063v-.95l2.305 1.162a1.22 1.22 0 001.201-.054c.366-.229.585-.625.585-1.059v-5.07a1.24 1.24 0 00-.586-1.06"/></g><g transform="translate(113 28.939)"><mask id="b" fill="#fff"><use xlink:href="#a"/></mask><path fill="#1F2F49" mask="url(#b)" d="M-7.757 19.069h32v-26h-32z"/></g><g transform="translate(0 81.939)"><mask id="d" fill="#fff"><use xlink:href="#c"/></mask><path d="M7.504 9.293c-.317 0-.66.102-1 .353-.46.34-.633 1.073-.402 1.705.494 1.352 2.105 2.113 4.91 3.34.935.41 1.935.848 2.974 1.362a67.328 67.328 0 011.567-2.87c1.512-2.664 2.347-4.237 1.934-5.616-.193-.642-.767-1.124-1.338-1.124h-.006c-1.035.005-1.556.734-1.603 1.41a3.355 3.355 0 01-2.297 2.958 3.351 3.351 0 01-3.61-.997 1.504 1.504 0 00-1.13-.52zm7.89 13.996a2.995 2.995 0 01-1.632-.483c-1.717-1.113-3.465-1.879-5.156-2.619-3.314-1.45-6.742-2.95-8.14-6.777C-.678 10.276.339 6.744 2.94 4.821c2.093-1.548 4.67-1.903 6.932-1.149C11.23 1.714 13.508.457 16.11.443h.039c3.22 0 6.129 2.216 7.084 5.4 1.172 3.903-.675 7.156-2.462 10.302-.912 1.605-1.854 3.265-2.563 5.184a3.002 3.002 0 01-2.814 1.96z" fill="#1F2F49" mask="url(#d)"/></g><g transform="translate(113 108.939)"><mask id="f" fill="#fff"><use xlink:href="#e"/></mask><path d="M10.675 25.591c1.217 0 2.385.03 3.5.055 5.387.133 8.542.098 10.692-2.047 1.328-1.323 1.697-3.377.878-4.88-1.279-2.354-3.745-2.776-5.522-1.977a3.571 3.571 0 01-3.93-.663 3.572 3.572 0 01-.886-3.889c.698-1.817.138-4.257-2.283-5.402-1.546-.735-3.576-.248-4.824 1.15-2.019 2.268-1.874 5.419-1.443 10.792.171 2.128.357 4.45.353 6.954a59.97 59.97 0 013.465-.093zM4.076 32a3.003 3.003 0 01-2.99-3.247c.282-3.409.032-6.527-.21-9.544-.453-5.64-.88-10.97 2.946-15.262C6.848.55 11.728-.511 15.69 1.364c3.68 1.74 5.888 5.25 6.001 9.003 3.767-.068 7.382 1.91 9.326 5.484 2.095 3.852 1.31 8.784-1.913 11.996-4.07 4.06-9.415 3.935-15.073 3.797-3.027-.071-6.154-.145-9.539.327a2.92 2.92 0 01-.416.029z" fill="#1F2F49" mask="url(#f)"/></g></g></svg>
