<?xml version="1.0" encoding="utf-8"?>
<!-- Generator: Adobe Illustrator 18.1.1, SVG Export Plug-In . SVG Version: 6.00 Build 0)  -->
<!DOCTYPE svg PUBLIC "-//W3C//DTD SVG 1.1//EN" "http://www.w3.org/Graphics/SVG/1.1/DTD/svg11.dtd">
<svg version="1.1" id="Layer_1" xmlns="http://www.w3.org/2000/svg" xmlns:xlink="http://www.w3.org/1999/xlink" x="0px" y="0px"
	 viewBox="0 0 51.9 62.2" enable-background="new 0 0 51.9 62.2" xml:space="preserve">
<g>
	<path fill="#373B43" d="M7.3,54.8h37.3V7.3H7.3V54.8z M9.3,9.3h33.3v43.5H9.3V9.3z"/>
	<path fill="#373B43" d="M49.3,53.5c0.6-4.7,2.4-19.5,0.1-23.8c2.2-4,0.5-16.7-0.1-20.9c1.6-0.7,2.7-2.3,2.7-4.1
		c0-2.5-2-4.6-4.6-4.6c-1.8,0-3.4,1.1-4.2,2.7c-2-0.3-7.3-0.9-11.6-0.9c-3.2,0-4.8,0.3-5.6,0.8c-0.8-0.4-2.4-0.8-5.7-0.8
		c-4.3,0-9.6,0.6-11.6,0.9C8,1.1,6.4,0,4.6,0C2,0,0,2,0,4.6C0,6.4,1.1,8,2.7,8.7c-0.6,5-1.9,17.2-0.1,20.9c-1.9,4-0.5,18.2,0.1,23.8
		C1.1,54.2,0,55.8,0,57.6c0,2.5,2,4.6,4.6,4.6c1.8,0,3.4-1.1,4.1-2.7c2,0.3,7.2,1,11.5,1c2.8,0,4.7-0.3,5.8-0.9
		c0.8,0.4,2.4,0.8,5.6,0.8c4.3,0,9.6-0.6,11.6-0.9c0.7,1.6,2.3,2.7,4.1,2.7c2.5,0,4.6-2,4.6-4.6C51.9,55.8,50.9,54.2,49.3,53.5z
		 M47.4,60.2c-1.2,0-2.2-0.8-2.5-2l-0.2-0.9l-0.9,0.1c-0.1,0-7,1-12.1,1c-4,0-4.8-0.6-5-0.7L26,57l-0.7,0.7
		c-0.2,0.2-1.1,0.8-5.1,0.8c-5.2,0-11.9-1.1-12-1.1l-0.9-0.2L7,58.2c-0.3,1.2-1.3,2-2.5,2C3.1,60.2,2,59,2,57.6c0-1.2,0.8-2.2,2-2.5
		l0.9-0.2L4.8,54C3.6,43.7,3.1,31.7,4.5,30.3l0.7-0.7l-0.7-0.7C3.1,27.6,3.6,17.1,4.8,8.2l0.1-0.9L4,7C2.8,6.8,2,5.7,2,4.6
		C2,3.1,3.1,2,4.6,2C5.8,2,6.8,2.8,7,4l0.2,0.9l0.9-0.1c0.1,0,7-1,12.1-1c4,0,4.8,0.6,5,0.7L26,5.2l0.7-0.7c0.1-0.1,0.8-0.7,4.9-0.7
		c5.2,0,12.1,0.9,12.2,1l0.9,0.1L44.9,4c0.3-1.2,1.3-2,2.5-2c1.4,0,2.6,1.1,2.6,2.6c0,1.2-0.8,2.2-2,2.5L47,7.2l0.1,0.9
		c1.2,7.6,2,19,0.3,20.8l-0.7,0.7l0.7,0.7c1.8,1.8,0.9,14.9-0.3,23.7L47,54.9l0.9,0.2c1.2,0.3,2,1.3,2,2.5
		C49.9,59,48.8,60.2,47.4,60.2z"/>
</g>
<g>
</g>
<g>
</g>
<g>
</g>
<g>
</g>
<g>
</g>
<g>
</g>
</svg>
