<?xml version="1.0" encoding="utf-8"?>
<!-- Generator: Adobe Illustrator 18.0.0, SVG Export Plug-In . SVG Version: 6.00 Build 0)  -->
<!DOCTYPE svg PUBLIC "-//W3C//DTD SVG 1.1//EN" "http://www.w3.org/Graphics/SVG/1.1/DTD/svg11.dtd">
<svg version="1.1" id="Layer_1" xmlns="http://www.w3.org/2000/svg" xmlns:xlink="http://www.w3.org/1999/xlink" x="0px" y="0px"
	 viewBox="0 0 60.2 56.6" enable-background="new 0 0 60.2 56.6" xml:space="preserve">
<path fill="#373B43" d="M56.3,4.9l3.9,0.2L55.6,0l-5.2,4.5l3.8,0.2C50.9,31.2,21.3,54.6,0,54.6v2c6.6,0,13.9-2.1,21.1-5.8v4.8h2
	v-5.8c3.1-1.7,6.1-3.8,9-6.1v11.9h2V42.1c0.6-0.5,1.2-1,1.8-1.6c2.6-2.4,5.1-4.9,7.3-7.6v22.6h2V30.5c4-5.3,7.1-11,9-16.7v41.9h2
	V5.3h0C56.3,5.2,56.3,5,56.3,4.9z"/>
<g>
</g>
<g>
</g>
<g>
</g>
<g>
</g>
<g>
</g>
<g>
</g>
</svg>
