<?xml version="1.0" encoding="utf-8"?>
<!-- Generator: Adobe Illustrator 18.0.0, SVG Export Plug-In . SVG Version: 6.00 Build 0)  -->
<!DOCTYPE svg PUBLIC "-//W3C//DTD SVG 1.1//EN" "http://www.w3.org/Graphics/SVG/1.1/DTD/svg11.dtd">
<svg version="1.1" id="Layer_1" xmlns="http://www.w3.org/2000/svg" xmlns:xlink="http://www.w3.org/1999/xlink" x="0px" y="0px"
	 viewBox="0 0 75.6 75.6" enable-background="new 0 0 75.6 75.6" xml:space="preserve">
<g>
	<g>
		<path fill="#373B43" d="M33.8,75.6L0,41.8L41.7,0.2L65.1,0l10.5,10.5l-0.2,23.4L33.8,75.6z M3.2,41.8l30.6,30.6L73.2,33l0.2-21.6
			l-9.2-9.2L42.6,2.4L3.2,41.8z"/>
	</g>
	<g>
		<path fill="#373B43" d="M59.7,22.3c-1.7,0-3.3-0.7-4.6-1.9c-2.5-2.5-2.5-6.6,0-9.1c1.2-1.2,2.8-1.9,4.6-1.9c1.7,0,3.3,0.7,4.6,1.9
			c2.5,2.5,2.5,6.6,0,9.1C63.1,21.6,61.5,22.3,59.7,22.3z M59.7,11.6c-1.1,0-2.2,0.4-3,1.2c-1.6,1.6-1.6,4.3,0,6
			c0.8,0.8,1.9,1.2,3,1.2c1.1,0,2.2-0.4,3-1.2c1.6-1.6,1.6-4.3,0-6C61.9,12.1,60.9,11.6,59.7,11.6z"/>
	</g>
</g>
<g>
</g>
<g>
</g>
<g>
</g>
<g>
</g>
<g>
</g>
<g>
</g>
</svg>
