<?xml version="1.0" encoding="utf-8"?>
<!-- Generator: Adobe Illustrator 18.1.1, SVG Export Plug-In . SVG Version: 6.00 Build 0)  -->
<!DOCTYPE svg PUBLIC "-//W3C//DTD SVG 1.1//EN" "http://www.w3.org/Graphics/SVG/1.1/DTD/svg11.dtd">
<svg version="1.1" id="Layer_1" xmlns="http://www.w3.org/2000/svg" xmlns:xlink="http://www.w3.org/1999/xlink" x="0px" y="0px"
	 viewBox="0 0 66.8 58.6" enable-background="new 0 0 66.8 58.6" xml:space="preserve">
<path fill="#373B43" d="M42.8,0l-0.4,0.9C41,4.6,37.4,7,33.4,7s-7.5-2.4-9-6.1L24,0L0,8l5.3,16.8l8.4-2.6v36.4h39.4V22l8.4,3l5.3-17
	L42.8,0z M33.4,9c4.5,0,8.5-2.5,10.5-6.5L45,2.8c-2.1,4.5-6.6,7.4-11.6,7.4c-5,0-9.5-2.9-11.6-7.4l1.1-0.4C24.9,6.4,28.9,9,33.4,9z
	 M2.5,9.3l1.2-0.4l4,13.1l-1.1,0.3L2.5,9.3z M51.1,19.2v37.4H15.7V19.5l-6.1,1.9l-4-13.1l14.3-4.8c2.4,5.3,7.7,8.8,13.5,8.8
	c5.9,0,11.2-3.5,13.5-8.8l14.4,4.8l-4,13.2L51.1,19.2z M60.2,22.5l-0.9-0.3l4-13.2l1.1,0.4L60.2,22.5z"/>
<g>
</g>
<g>
</g>
<g>
</g>
<g>
</g>
<g>
</g>
<g>
</g>
</svg>
